<svg width="34" height="39" viewBox="0 0 34 39" fill="none" xmlns="http://www.w3.org/2000/svg">
<path d="M28.9076 7.39629C25.7277 4.19707 21.4929 2.4375 16.9924 2.4375C7.70312 2.4375 0.144196 10.0242 0.144196 19.3477C0.144196 22.326 0.918304 25.2357 2.39063 27.8027L0 36.5625L8.93259 34.2088C11.3915 35.557 14.1616 36.2654 16.9848 36.2654H16.9924C26.2741 36.2654 34 28.6787 34 19.3553C34 14.8383 32.0875 10.5955 28.9076 7.39629V7.39629ZM16.9924 33.4166C14.4728 33.4166 12.0062 32.7387 9.85848 31.459L9.35 31.1543L4.05268 32.5482L5.46429 27.3609L5.13036 26.8277C3.72634 24.5883 2.99018 22.0061 2.99018 19.3477C2.99018 11.601 9.27411 5.29395 17 5.29395C20.7415 5.29395 24.2554 6.75645 26.8964 9.41484C29.5375 12.0732 31.1616 15.6 31.154 19.3553C31.154 27.1096 24.7107 33.4166 16.9924 33.4166V33.4166ZM24.6728 22.8896C24.2554 22.6764 22.1835 21.6557 21.7964 21.5186C21.4094 21.3738 21.1286 21.3053 20.8478 21.7318C20.567 22.1584 19.7625 23.1029 19.5121 23.3924C19.2692 23.6742 19.0188 23.7123 18.6013 23.499C16.1272 22.2574 14.5031 21.2824 12.8714 18.4717C12.4388 17.7252 13.304 17.7785 14.1085 16.1637C14.2451 15.8818 14.1768 15.6381 14.0705 15.4248C13.9643 15.2115 13.1219 13.132 12.7728 12.2865C12.4313 11.4639 12.0821 11.5781 11.8241 11.5629C11.5813 11.5477 11.3004 11.5477 11.0196 11.5477C10.7388 11.5477 10.2835 11.6543 9.89643 12.0732C9.50937 12.4998 8.42411 13.5205 8.42411 15.6C8.42411 17.6795 9.93438 19.6904 10.1393 19.9723C10.3518 20.2541 13.1067 24.5197 17.3339 26.3555C20.0054 27.5133 21.0527 27.6123 22.3884 27.4143C23.2004 27.2924 24.8777 26.3936 25.2268 25.4033C25.5759 24.4131 25.5759 23.5676 25.4696 23.3924C25.371 23.202 25.0902 23.0953 24.6728 22.8896Z" fill="#1D1D1D"/>
</svg>
