<svg width="79" height="36" viewBox="0 0 79 36" fill="none" xmlns="http://www.w3.org/2000/svg">
<path d="M2.47662 26.008L13.9068 0L25.337 26.008H21.165L20.3268 23.9557H7.52497L6.64865 26.008H2.47662ZM8.89659 20.6472H18.9171L13.9068 8.72241L8.89659 20.6472Z" fill="#1D1D1D"/>
<path d="M50.6196 11.8186C50.2624 12.8801 49.7337 13.8355 49.0384 14.6848C48.3383 15.534 47.481 16.255 46.4666 16.8433C46.4142 16.8919 46.3523 16.9273 46.2761 16.9494C46.1999 16.976 46.1332 17.0113 46.0856 17.0556L51.0196 26.0788H46.6952L42.3708 18.241C42.066 18.2896 41.7612 18.325 41.4564 18.3471C41.1516 18.3737 40.8182 18.3825 40.4657 18.3825H35.4555V26.0788H31.3597V0H40.4657C41.6088 0 42.6803 0.137117 43.6853 0.406928C44.6997 0.681161 45.6284 1.0527 46.4666 1.52156C48.524 2.72465 49.9052 4.4187 50.6196 6.59931C50.6577 6.71873 50.6863 6.82489 50.7148 6.91777C50.7386 7.01508 50.7767 7.12123 50.8291 7.23624V7.41316C50.8768 7.53259 50.9101 7.66086 50.9244 7.8024C50.9339 7.94394 50.953 8.08548 50.9815 8.22702V8.2624C51.0053 8.40394 51.0196 8.54548 51.0196 8.68702C51.0196 8.82856 51.0196 8.98337 51.0196 9.14703V9.25318C51.0196 9.39472 51.0196 9.53626 51.0196 9.6778C51.0196 9.81934 51.0053 9.96088 50.9815 10.1024V10.1732C50.953 10.3147 50.9339 10.4519 50.9244 10.5801C50.9101 10.7128 50.8768 10.8455 50.8291 10.987V11.1286C50.7244 11.4028 50.6577 11.6328 50.6196 11.8186ZM40.9611 15.0386C41.7993 15.0386 42.566 14.875 43.2661 14.5432C43.9758 14.2159 44.5854 13.778 45.095 13.234C45.5998 12.6944 46.0094 12.0751 46.3142 11.3763C46.619 10.6686 46.7714 9.93877 46.7714 9.18241C46.7714 8.4526 46.619 7.73163 46.3142 7.02393C46.0094 6.31623 45.5998 5.69699 45.095 5.16621C44.5854 4.62659 43.9758 4.1887 43.2661 3.85697C42.566 3.52966 41.7993 3.36158 40.9611 3.36158H35.4936V15.0386H40.9611Z" fill="#1D1D1D"/>
<path d="M75.0746 0.0336914L67.1306 9.99457L75.9128 26.0063H71.6074L64.5779 13.1969L61.0917 17.5316V26.0063H57.0339V0.0336914H61.0917V11.8169L70.4263 0.0336914H75.0746Z" fill="#1D1D1D"/>
<path d="M78.6351 30.9825C77.8826 30.5933 77.1348 30.2085 76.3824 29.8237C75.1965 29.2088 74.0106 28.5984 72.8247 27.9881C72.5532 27.8465 72.2818 27.705 72.0055 27.5634C71.5102 27.3113 70.8816 27.6254 70.8816 28.1694C70.8816 28.9435 70.8816 29.7131 70.8816 30.4827C70.8816 30.6198 70.8816 30.7525 70.8816 30.8852C70.872 30.8852 70.8673 30.8852 70.8577 30.8852C70.1672 30.8852 52.798 30.8852 52.3551 30.8852C52.2646 30.5579 52.1217 30.2394 51.9074 29.9696C51.5217 29.4698 51.0264 29.1115 50.4072 28.8992C49.2785 28.5011 47.8783 28.855 47.1115 29.7308C46.8067 30.0802 46.5924 30.465 46.4781 30.8852C45.7161 30.8852 43.8587 30.8852 43.692 30.8852C43.6015 30.5535 43.4538 30.2394 43.2443 29.9696C42.8585 29.4698 42.3632 29.1115 41.7441 28.8992C40.6106 28.5011 39.2151 28.855 38.4484 29.7308C38.1436 30.0802 37.9292 30.465 37.8102 30.8852C37.6054 30.8852 35.748 30.8852 35.0288 30.8852C34.9431 30.5579 34.7955 30.2394 34.5812 29.9696C34.1954 29.4698 33.7001 29.1115 33.0809 28.8992C31.9522 28.5011 30.552 28.855 29.7852 29.7308C29.4804 30.0802 29.2661 30.465 29.1518 30.8852C28.5279 30.8852 26.6705 30.8808 26.3657 30.8808C26.2752 30.5535 26.1323 30.2394 25.9228 29.9696C25.5322 29.4698 25.0369 29.1115 24.4225 28.8992C23.2891 28.5011 21.8889 28.855 21.1221 29.7308C20.8173 30.0802 20.603 30.465 20.4887 30.8852C19.9695 30.8852 18.1121 30.8852 17.7025 30.8852C17.6168 30.5579 17.4692 30.2394 17.2596 29.9696C16.8691 29.4698 16.3738 29.1115 15.7594 28.8992C14.6259 28.5011 13.2257 28.855 12.4589 29.7308C12.1541 30.0802 11.9446 30.465 11.8255 30.8852C11.3778 30.8852 0.576289 30.8901 1.51156e-05 30.8901C1.51156e-05 30.8901 1.51156e-05 30.9755 1.51156e-05 31.2408C1.51156e-05 30.9755 1.51156e-05 31.2408 1.51156e-05 31.3939C1.51156e-05 31.74 1.51156e-05 31.5885 1.51156e-05 31.5885C1.51156e-05 31.8583 1.51156e-05 31.8583 1.51156e-05 31.8583C0 31.9998 0 32.1414 0 32.1582C0 32.1582 1.51156e-05 31.8583 0 32.1414C0 32.1893 0.00284471 32.1399 1.77318e-05 32.2918C3.37195e-05 32.1977 3.47553e-05 32.1917 1.77318e-05 32.2918C0.000272968 32.2777 3.57316e-05 32.1859 1.77318e-05 32.2918C0.409601 32.2918 11.1016 32.2918 11.816 32.2918C11.8874 32.5616 12.0065 32.8181 12.1541 33.0525C12.4589 33.5214 12.9114 33.9283 13.4448 34.1539C14.0687 34.4237 14.7307 34.4989 15.407 34.3706C16.5405 34.1627 17.412 33.3091 17.6978 32.2918C17.9407 32.2918 20.3982 32.2918 20.4791 32.2918C20.5553 32.5616 20.6696 32.8181 20.8173 33.0525C21.1221 33.5214 21.5793 33.9239 22.1127 34.1539C22.7366 34.4193 23.3938 34.4945 24.0701 34.3706C25.2036 34.1627 26.0752 33.3091 26.3609 32.2873C26.5705 32.2873 28.4231 32.2873 29.1423 32.2873C29.2185 32.5571 29.3328 32.8181 29.4852 33.0525C29.7852 33.5214 30.2424 33.9239 30.7758 34.1539C31.3997 34.4193 32.057 34.4945 32.7333 34.3706C33.8668 34.1627 34.7383 33.3091 35.0241 32.2873C35.648 32.2873 37.5054 32.2918 37.8102 32.2918C37.8816 32.5616 37.9959 32.8181 38.1483 33.0525C38.4484 33.5214 38.9056 33.9239 39.439 34.1539C40.0629 34.4193 40.7201 34.4945 41.3964 34.3706C42.5299 34.1627 43.4015 33.3091 43.6872 32.2873C43.7301 32.2873 46.2781 32.2873 46.4733 32.2873C46.5448 32.5571 46.6591 32.8181 46.8115 33.0525C47.1115 33.5214 47.5687 33.9239 48.1021 34.1539C48.726 34.4193 49.388 34.4945 50.0595 34.3706C51.193 34.1627 52.0646 33.3091 52.3551 32.2873C52.4742 32.2873 70.7482 32.2873 70.8863 32.2918C70.8863 32.9154 70.8863 33.5435 70.8863 34.1672C70.8863 34.4458 70.8863 34.7245 70.8863 35.0031C70.8863 35.0076 70.8863 35.012 70.8863 35.0164C70.8816 35.1358 70.9149 35.2553 70.9863 35.3614C71.0054 35.3924 71.0292 35.4189 71.053 35.4454C71.0625 35.4499 71.0673 35.4587 71.0721 35.4631C71.0768 35.4676 71.0768 35.472 71.0816 35.472C71.2197 35.6179 71.4197 35.7153 71.634 35.7064C71.6626 35.7064 71.696 35.702 71.7245 35.6976C71.8246 35.6887 71.9198 35.6578 72.0103 35.6091C72.7628 35.2243 73.5105 34.8395 74.263 34.4502C75.4489 33.8399 76.6348 33.225 77.8207 32.6146C78.0969 32.4731 78.3684 32.3316 78.6398 32.1944C79.1209 31.9423 79.1208 31.2346 78.6351 30.9825ZM24.8512 32.1414C24.8036 32.2387 24.7512 32.3316 24.6845 32.42C24.6702 32.4377 24.6607 32.4554 24.6464 32.4731C24.6035 32.5173 24.5607 32.566 24.513 32.6102C24.4654 32.65 24.4225 32.6898 24.3702 32.7296C24.3511 32.7429 24.3321 32.7562 24.313 32.7695C24.2178 32.8314 24.1177 32.88 24.013 32.9243C23.8891 32.9685 23.7653 32.9995 23.632 33.0216C23.4938 33.0348 23.3557 33.0348 23.2176 33.0216C23.089 32.9995 22.9604 32.9685 22.8366 32.9243C22.7366 32.88 22.6318 32.8314 22.5366 32.7695C22.5175 32.7606 22.4985 32.7473 22.4842 32.7341C22.4318 32.6943 22.3842 32.6545 22.3365 32.6102C22.2937 32.566 22.2508 32.5218 22.2079 32.4775C22.1937 32.4598 22.1794 32.4421 22.1651 32.4245C22.1032 32.3316 22.046 32.2387 21.9984 32.1414C21.9555 32.0264 21.9222 31.9069 21.8984 31.7875C21.8841 31.6548 21.8841 31.5266 21.8984 31.3939C21.9222 31.2744 21.9555 31.155 21.9984 31.04C22.046 30.9427 22.1032 30.8454 22.1651 30.7569C22.1794 30.7437 22.1889 30.726 22.2032 30.7083C22.2508 30.6596 22.2889 30.6154 22.3365 30.5712C22.3842 30.5269 22.4318 30.4871 22.4794 30.4517C22.4985 30.4385 22.5175 30.4252 22.5366 30.4119C22.6318 30.35 22.7318 30.3014 22.8366 30.2527C22.9604 30.2129 23.089 30.1775 23.2176 30.1598C23.3557 30.1465 23.4938 30.1465 23.632 30.1598C23.7653 30.1775 23.8891 30.2129 24.013 30.2527C24.1177 30.3014 24.2178 30.35 24.313 30.4119C24.3321 30.4208 24.3511 30.434 24.3702 30.4473C24.4178 30.4871 24.4654 30.5269 24.513 30.5712C24.5607 30.611 24.6035 30.6552 24.6464 30.7039C24.6607 30.7215 24.6702 30.7392 24.6845 30.7569C24.7512 30.8454 24.8036 30.9427 24.8512 31.04C24.8988 31.155 24.9321 31.2744 24.956 31.3983C24.9607 31.4514 24.9655 31.5089 24.9655 31.5664C24.9655 31.5752 24.9655 31.5841 24.9655 31.5929C24.9655 31.6548 24.9607 31.7212 24.956 31.7831C24.9321 31.9069 24.894 32.0219 24.8512 32.1414ZM42.2822 31.7831C42.2584 31.9025 42.2203 32.0219 42.1775 32.1414C42.1298 32.2387 42.0775 32.3316 42.0108 32.42C41.9965 32.4377 41.987 32.4554 41.9727 32.4731C41.9298 32.5173 41.887 32.566 41.8393 32.6102C41.7917 32.65 41.7488 32.6898 41.6964 32.7296C41.6774 32.7429 41.6583 32.7562 41.6393 32.7695C41.544 32.8314 41.444 32.88 41.3393 32.9243C41.2154 32.9685 41.0916 32.9995 40.9582 33.0216C40.8201 33.0348 40.682 33.0348 40.5439 33.0216C40.4153 32.9995 40.2867 32.9685 40.1629 32.9243C40.0629 32.88 39.9581 32.8314 39.8676 32.7695C39.8486 32.7606 39.8295 32.7473 39.8105 32.7341C39.7628 32.6943 39.7105 32.6545 39.6628 32.6102C39.62 32.566 39.5771 32.5218 39.5342 32.4775C39.5199 32.4598 39.5057 32.4421 39.4914 32.4245C39.4295 32.3316 39.3771 32.2387 39.3294 32.1414C39.2818 32.0264 39.2485 31.9069 39.2247 31.7875C39.2104 31.6548 39.2104 31.5266 39.2247 31.3939C39.2485 31.2744 39.2818 31.155 39.3294 31.04C39.3771 30.9427 39.4295 30.8454 39.4914 30.7569C39.5057 30.7437 39.5199 30.726 39.5295 30.7083C39.5723 30.6596 39.6152 30.6154 39.6628 30.5712C39.7105 30.5269 39.7581 30.4871 39.8057 30.4517C39.8248 30.4385 39.8438 30.4252 39.8629 30.4119C39.9581 30.35 40.0581 30.3014 40.1629 30.2527C40.2867 30.2129 40.4106 30.1775 40.5439 30.1598C40.682 30.1465 40.8201 30.1465 40.9582 30.1598C41.0868 30.1775 41.2154 30.2129 41.3393 30.2527C41.444 30.3014 41.544 30.35 41.6393 30.4119C41.6583 30.4208 41.6774 30.434 41.6917 30.4473C41.7441 30.4871 41.7917 30.5269 41.8393 30.5712C41.8822 30.611 41.9251 30.6552 41.9679 30.7039C41.9822 30.7215 41.9965 30.7392 42.0108 30.7569C42.0775 30.8454 42.1298 30.9427 42.1775 31.04C42.2203 31.155 42.2584 31.2744 42.2822 31.3983C42.287 31.4514 42.287 31.5089 42.2918 31.5664C42.2918 31.5752 42.2918 31.5841 42.2918 31.5885C42.287 31.6548 42.287 31.7168 42.2822 31.7831ZM75.6299 32.1414C74.544 32.7031 73.4581 33.2604 72.377 33.8177C72.377 33.4418 72.377 33.0702 72.377 32.6943C72.377 31.5841 72.377 30.4694 72.377 29.3592C72.7485 29.5538 73.1247 29.744 73.501 29.9387C74.5678 30.4871 75.6346 31.04 76.7015 31.5929C76.3443 31.7743 75.9871 31.9556 75.6299 32.1414Z" fill="#1D1D1D"/>
</svg>
