<svg width="257" height="77" viewBox="0 0 257 77" fill="none" xmlns="http://www.w3.org/2000/svg">
<path d="M112.52 23.864H107.072V38H103.784V23.864H98.336V20.96H112.52V23.864ZM116.195 38V20.96H123.731C124.515 20.96 125.235 21.12 125.891 21.44C126.563 21.76 127.139 22.192 127.619 22.736C128.115 23.28 128.491 23.888 128.747 24.56C129.019 25.232 129.155 25.92 129.155 26.624C129.155 27.344 129.027 28.04 128.771 28.712C128.531 29.368 128.179 29.944 127.715 30.44C127.251 30.936 126.707 31.32 126.083 31.592L129.971 38H126.323L122.819 32.288H119.507V38H116.195ZM119.507 29.384H123.659C124.075 29.384 124.443 29.264 124.763 29.024C125.083 28.768 125.339 28.432 125.531 28.016C125.723 27.6 125.819 27.136 125.819 26.624C125.819 26.08 125.707 25.608 125.483 25.208C125.259 24.792 124.971 24.464 124.619 24.224C124.283 23.984 123.915 23.864 123.515 23.864H119.507V29.384ZM138.348 20.96H141.708L147.972 38H144.564L142.98 33.752H137.028L135.468 38H132.06L138.348 20.96ZM142.38 31.424L140.028 24.392L137.58 31.424H142.38ZM165.297 38V26.816L160.929 35.144H159.081L154.713 26.816V38H151.401V20.96H154.953L159.993 30.656L165.081 20.96H168.609V38H165.297ZM178.359 20.96H181.719L187.983 38H184.575L182.991 33.752H177.039L175.479 38H172.071L178.359 20.96ZM182.391 31.424L180.039 24.392L177.591 31.424H182.391ZM194.724 27.056V38H191.412V20.96H194.052L202.86 32.192V20.984H206.172V38H203.412L194.724 27.056ZM211.277 38V20.96H217.469C219.325 20.96 220.877 21.344 222.125 22.112C223.373 22.864 224.309 23.888 224.933 25.184C225.557 26.464 225.869 27.888 225.869 29.456C225.869 31.184 225.525 32.688 224.837 33.968C224.149 35.248 223.173 36.24 221.909 36.944C220.661 37.648 219.181 38 217.469 38H211.277ZM222.533 29.456C222.533 28.352 222.333 27.384 221.933 26.552C221.533 25.704 220.957 25.048 220.205 24.584C219.453 24.104 218.541 23.864 217.469 23.864H214.589V35.096H217.469C218.557 35.096 219.477 34.856 220.229 34.376C220.981 33.88 221.549 33.208 221.933 32.36C222.333 31.496 222.533 30.528 222.533 29.456ZM233.992 20.96H237.352L243.616 38H240.208L238.624 33.752H232.672L231.112 38H227.704L233.992 20.96ZM238.024 31.424L235.672 24.392L233.224 31.424H238.024ZM247.045 38V20.96H250.357V38H247.045ZM249.757 19.52L247.693 18.896L248.989 16.04H251.989L249.757 19.52ZM99.7 63V48.8H101.5V63H99.7ZM118.475 63V52.16L113.795 60.5H112.695L107.995 52.16V63H106.195V48.8H108.095L113.235 58.02L118.395 48.8H120.275V63H118.475ZM130.736 63.1C129.736 63.1 128.829 62.9 128.016 62.5C127.202 62.1 126.496 61.56 125.896 60.88C125.309 60.1867 124.856 59.4133 124.536 58.56C124.216 57.6933 124.056 56.8067 124.056 55.9C124.056 54.9533 124.222 54.0533 124.556 53.2C124.902 52.3333 125.376 51.5667 125.976 50.9C126.589 50.22 127.302 49.6867 128.116 49.3C128.929 48.9 129.816 48.7 130.776 48.7C131.776 48.7 132.682 48.9067 133.496 49.32C134.309 49.7333 135.009 50.2867 135.596 50.98C136.182 51.6733 136.636 52.4467 136.956 53.3C137.276 54.1533 137.436 55.0267 137.436 55.92C137.436 56.8667 137.269 57.7733 136.936 58.64C136.602 59.4933 136.129 60.26 135.516 60.94C134.916 61.6067 134.209 62.1333 133.396 62.52C132.582 62.9067 131.696 63.1 130.736 63.1ZM125.876 55.9C125.876 56.62 125.989 57.32 126.216 58C126.456 58.6667 126.789 59.26 127.216 59.78C127.642 60.3 128.156 60.7133 128.756 61.02C129.356 61.3267 130.022 61.48 130.756 61.48C131.516 61.48 132.196 61.32 132.796 61C133.396 60.68 133.902 60.2533 134.316 59.72C134.742 59.1867 135.062 58.5867 135.276 57.92C135.502 57.2533 135.616 56.58 135.616 55.9C135.616 55.18 135.496 54.4867 135.256 53.82C135.029 53.1533 134.696 52.56 134.256 52.04C133.829 51.5067 133.316 51.0933 132.716 50.8C132.129 50.4933 131.476 50.34 130.756 50.34C129.996 50.34 129.316 50.5 128.716 50.82C128.116 51.1267 127.602 51.5467 127.176 52.08C126.762 52.6133 126.442 53.2133 126.216 53.88C125.989 54.5333 125.876 55.2067 125.876 55.9ZM131.396 47.1L130.236 46.7L131.396 44.68H133.156L131.396 47.1ZM141.09 48.8L145.79 60.74L150.47 48.8H152.37L146.61 63H144.97L139.19 48.8H141.09ZM165.224 61.4V63H155.584V48.8H165.044V50.4H157.384V55H164.044V56.5H157.384V61.4H165.224ZM168.993 63V48.8H170.793V63H168.993ZM183.828 51.78C183.668 51.5933 183.455 51.4133 183.188 51.24C182.922 51.0667 182.622 50.9133 182.288 50.78C181.955 50.6333 181.588 50.52 181.188 50.44C180.802 50.3467 180.395 50.3 179.968 50.3C178.875 50.3 178.068 50.5067 177.548 50.92C177.028 51.3333 176.768 51.9 176.768 52.62C176.768 53.1267 176.902 53.5267 177.168 53.82C177.435 54.1133 177.842 54.3533 178.388 54.54C178.948 54.7267 179.655 54.92 180.508 55.12C181.495 55.3333 182.348 55.5933 183.068 55.9C183.788 56.2067 184.342 56.62 184.728 57.14C185.115 57.6467 185.308 58.3267 185.308 59.18C185.308 59.86 185.175 60.4533 184.908 60.96C184.655 61.4533 184.295 61.8667 183.828 62.2C183.362 62.52 182.815 62.76 182.188 62.92C181.562 63.0667 180.882 63.14 180.148 63.14C179.428 63.14 178.722 63.0667 178.028 62.92C177.348 62.76 176.702 62.5333 176.088 62.24C175.475 61.9467 174.902 61.58 174.368 61.14L175.228 59.62C175.442 59.8467 175.715 60.0733 176.048 60.3C176.395 60.5133 176.782 60.7133 177.208 60.9C177.648 61.0867 178.122 61.24 178.628 61.36C179.135 61.4667 179.655 61.52 180.188 61.52C181.202 61.52 181.988 61.34 182.548 60.98C183.108 60.6067 183.388 60.0667 183.388 59.36C183.388 58.8267 183.228 58.4 182.908 58.08C182.602 57.76 182.142 57.4933 181.528 57.28C180.915 57.0667 180.168 56.8533 179.288 56.64C178.328 56.4 177.522 56.14 176.868 55.86C176.215 55.5667 175.722 55.1867 175.388 54.72C175.068 54.2533 174.908 53.6467 174.908 52.9C174.908 51.9933 175.128 51.2267 175.568 50.6C176.008 49.9733 176.615 49.5 177.388 49.18C178.162 48.86 179.035 48.7 180.008 48.7C180.648 48.7 181.242 48.7667 181.788 48.9C182.348 49.0333 182.868 49.22 183.348 49.46C183.828 49.7 184.268 49.9867 184.668 50.32L183.828 51.78Z" fill="#1E1D40"/>
<path d="M30.8242 2.45992C29.7696 3.01214 28.3794 4.1166 27.7562 4.97004L26.6536 6.52631L25.6469 5.52226C24.1129 4.01619 21.716 3.41376 19.5588 4.01619C17.1139 4.71903 16.9222 5.32145 18.9835 5.77328C21.0928 6.1749 23.0103 7.02834 23.0103 7.63077C23.0103 7.83157 21.8598 8.03238 20.5175 8.03238C17.066 8.03238 14.4773 9.58866 13.0392 12.5506C12.4639 13.7555 11.9845 15.2113 11.9845 15.7636C11.9845 16.6672 12.0804 16.6672 13.3268 15.4623C14.6211 14.1069 19.367 11.5466 20.5175 11.5466C20.8052 11.5466 21.0928 11.7474 21.0928 12.0486C21.0928 12.2996 20.901 12.5506 20.7093 12.5506C19.9902 12.5506 12.8954 21.7376 11.0258 25.1012C5.94433 34.0874 4.50618 45.7344 7.19072 56.1765C8.48505 61.1967 9.06031 62.1004 10.4026 61.2469C11.3613 60.5943 11.3613 60.5943 10.1149 56.7789C9.01237 53.3652 8.91649 52.1603 8.86856 45.4332C8.86856 39.5093 9.06031 37.2502 9.73144 34.8907C10.834 31.2761 13.4227 25.7036 15.1964 23.2437L16.4907 21.4866L17.1139 23.7457C17.4495 24.9506 18.0247 26.2559 18.4082 26.5571C18.9356 27.0089 19.1273 26.7077 19.367 24.6996C19.6546 22.4405 22.4351 15.4623 23.3459 14.9101C23.5376 14.7595 23.6335 18.1231 23.5856 22.3401C23.3938 31.1255 24.2567 38.9571 26.1263 45.132C26.7974 47.2405 27.3247 49.1482 27.3247 49.4494C27.3247 49.7004 25.9825 50.7044 24.3046 51.5579C22.6747 52.4615 20.2299 54.319 18.9356 55.7247L16.6345 58.1846L19.2232 57.4818C25.7907 55.6745 34.851 55.3733 50.0954 56.5279L54.4098 56.8793L53.2593 55.5741C50.8144 52.7627 40.9871 48.7465 36.5768 48.6963H34.9948V45.5336C34.9948 41.2664 36.1933 33.5352 37.4397 29.7198C38.5423 26.3061 39.4531 25.4526 38.782 28.4648C38.2546 30.9247 38.2546 34.1878 38.782 35.0915C39.3572 36.0453 40.5557 33.5854 41.2747 30.1214C41.5624 28.6656 41.9938 27.7117 42.1856 27.9627C42.7129 28.515 43.6237 33.234 43.6717 35.5433L43.7196 37.4008L44.8701 34.8907C46.2603 31.8283 46.2603 31.0251 45.0619 28.1636C44.5345 26.9587 44.199 25.8542 44.2948 25.7538C44.5825 25.4024 47.8902 29.017 48.9448 30.8243L49.8557 32.3806V30.4227C49.8557 27.9125 48.3696 25.4024 45.9247 23.8963C43.8155 22.5911 43.9113 22.3401 46.6918 21.838C47.9381 21.587 48.3217 21.336 47.8423 21.0348C46.8835 20.3822 42.9526 20.4826 41.9938 21.2356C41.2747 21.7878 40.9392 21.6874 39.5969 20.332C38.782 19.5287 37.7273 17.7717 37.2479 16.5166C36.8165 15.2615 35.5222 13.3036 34.4196 12.149C33.0294 10.6429 32.6938 10.0405 33.2691 10.0405C34.5155 10.0405 39.549 12.8518 41.4665 14.6089C42.665 15.7134 43.1443 15.9644 43.1443 15.4121C43.1443 13.9563 42.2335 12.0988 40.4598 10.0907C38.2546 7.48016 38.5423 7.32955 45.9247 7.63077C50.383 7.83157 52.3485 8.18299 55.5124 9.28745C64.8603 12.6008 72.2428 19.3279 76.5093 28.3644C78.3789 32.3806 80.2005 38.1036 79.7691 38.6057C79.7211 38.7061 79.05 38.3044 78.283 37.7522C77.5639 37.2502 76.4613 36.5976 75.8382 36.3968C74.8315 36.0955 74.9273 36.2963 76.5093 38.5053C77.468 39.8105 78.9541 42.3708 79.7691 44.1781C81.0634 46.9895 81.2552 47.9935 81.2552 51.4575C81.2072 54.9214 81.0155 55.8251 79.817 58.1344C75.982 65.464 67.5928 69.7312 56.8546 69.7814C51.5335 69.7814 43.7675 68.5765 38.6861 66.97C30.4407 64.3595 26.0784 63.6567 19.6546 63.8575C12.5598 64.1085 9.34794 65.1627 6.2799 68.2753C3.93093 70.685 3.69124 71.8397 5.84845 70.1328C9.49175 67.2712 12.5119 66.1166 16.8263 65.8656C21.6201 65.6146 24.9278 66.2672 35.5222 69.4801C46.8356 72.8939 50.383 73.4963 59.2036 73.4963C67.4969 73.4963 70.6129 72.9441 75.7423 70.3838C83.2206 66.6688 87.6309 56.8793 85.6655 48.4453C85.234 46.638 84.467 44.5295 83.9876 43.7765C83.5083 43.0235 82.8371 40.7644 82.5495 38.8065C80.0088 22.5409 68.7433 9.83967 53.451 5.97409C48.7531 4.81943 40.4119 4.71903 36.1933 5.77328C30.3928 7.22915 29.5778 6.3255 34.2278 3.71498C36.2892 2.56032 36.8165 2.0583 36.1933 1.80728C34.8031 1.25506 32.8856 1.50607 30.8242 2.45992ZM33.7485 18.3239C34.4675 19.8802 35.0428 21.2356 34.9469 21.2858C34.851 21.3862 33.8923 21.587 32.7897 21.7376L30.8242 22.0891L30.7284 19.4283C30.6804 17.9223 30.4407 15.9644 30.201 15.0105C29.5299 12.7012 29.5299 12.7012 31.0639 14.2073C31.783 14.9603 32.9814 16.8178 33.7485 18.3239ZM26.5098 16.5166C26.9892 21.085 30.201 29.3182 30.201 25.8542C30.201 24.7498 31.9268 24.047 34.1799 24.1976L36.1933 24.3482L34.6593 25.302C32.6459 26.6073 31.0639 29.6194 31.2557 31.9287L31.3995 33.6858L33.2211 31.0251C34.2758 29.5692 35.666 27.9125 36.3371 27.4105C37.5356 26.4567 37.5356 26.4567 37.1521 27.4105C34.7072 33.3846 32.5979 42.5214 32.5979 47.0397C32.5979 48.3951 32.4062 48.7465 31.783 48.5959C30.1531 48.2947 26.5098 34.6899 25.4072 24.6996C24.832 19.9806 25.1196 13.5547 25.8387 13.5547C26.0784 13.5547 26.366 14.8599 26.5098 16.5166Z" fill="url(#paint0_linear_5_120)"/>
<path d="M57.0464 29.1174C55.5124 29.4688 55.5603 29.4688 57.9572 29.5692C60.1144 29.6194 60.6897 29.8202 61.7443 31.0753L63.0387 32.481L64.3809 31.4769C65.5794 30.5231 65.915 30.4729 68.4077 31.0251C69.8938 31.3263 71.1882 31.5271 71.332 31.4267C71.4278 31.3263 70.3253 30.7741 68.8392 30.1716C66.682 29.3182 65.9629 29.268 64.6686 29.7198C63.4222 30.1716 62.8949 30.1214 61.8402 29.4186C60.4021 28.5652 59.7309 28.515 57.0464 29.1174Z" fill="url(#paint1_linear_5_120)"/>
<path d="M72.7222 45.4834C74.1603 48.1943 74.0644 50.5036 72.2907 54.1684C70.9005 56.9295 67.401 59.3392 63.3263 60.3433C59.4433 61.2971 47.3149 61.0963 41.9459 60.0421C35.9536 58.8372 28.3794 58.4858 23.2979 59.1886C19.4149 59.7409 9.73144 62.5522 10.1629 63.004C10.2588 63.1044 11.9366 62.753 13.9021 62.1506C18.5521 60.8453 29.1943 60.3433 34.4196 61.2469C36.433 61.5984 41.035 62.5522 44.5825 63.4056C53.1634 65.4137 61.6485 65.6145 66.9216 63.9077C73.633 61.6988 77.1804 57.783 77.1804 52.6121C77.1804 49.6502 76.3175 47.4413 74.4959 45.5336C72.0031 42.9231 71.332 42.9231 72.7222 45.4834Z" fill="url(#paint2_linear_5_120)"/>
<defs>
<linearGradient id="paint0_linear_5_120" x1="48.2096" y1="69.4081" x2="44.7905" y2="5.12868" gradientUnits="userSpaceOnUse">
<stop stop-color="#00D1FF"/>
<stop offset="1" stop-color="#1E1D40"/>
</linearGradient>
<linearGradient id="paint1_linear_5_120" x1="64.2268" y1="32.267" x2="64.1768" y2="28.8942" gradientUnits="userSpaceOnUse">
<stop stop-color="#00D1FF"/>
<stop offset="1" stop-color="#1E1D40"/>
</linearGradient>
<linearGradient id="paint2_linear_5_120" x1="46.0918" y1="63.8415" x2="45.719" y2="44.6003" gradientUnits="userSpaceOnUse">
<stop stop-color="#00D1FF"/>
<stop offset="1" stop-color="#1E1D40"/>
</linearGradient>
</defs>
</svg>
