<?xml version="1.0" standalone="no"?>
<!DOCTYPE svg PUBLIC "-//W3C//DTD SVG 20010904//EN"
 "http://www.w3.org/TR/2001/REC-SVG-20010904/DTD/svg10.dtd">
<svg version="1.0" xmlns="http://www.w3.org/2000/svg"
 width="194.000000pt" height="152.000000pt" viewBox="0 0 194.000000 152.000000"
 preserveAspectRatio="xMidYMid meet">

<g transform="translate(0.000000,152.000000) scale(0.100000,-0.100000)"
fill="#000000" stroke="none">
<path d="M643 1471 c-22 -11 -51 -33 -64 -50 l-23 -31 -21 20 c-32 30 -82 42
-127 30 -51 -14 -55 -26 -12 -35 44 -8 84 -25 84 -37 0 -4 -24 -8 -52 -8 -72
0 -126 -31 -156 -90 -12 -24 -22 -53 -22 -64 0 -18 2 -18 28 6 27 27 126 78
150 78 6 0 12 -4 12 -10 0 -5 -4 -10 -8 -10 -15 0 -163 -183 -202 -250 -106
-179 -136 -411 -80 -619 27 -100 39 -118 67 -101 20 13 20 13 -6 89 -23 68
-25 92 -26 226 0 118 4 163 18 210 23 72 77 183 114 232 l27 35 13 -45 c7 -24
19 -50 27 -56 11 -9 15 -3 20 37 6 45 64 184 83 195 4 3 6 -64 5 -148 -4 -175
14 -331 53 -454 14 -42 25 -80 25 -86 0 -5 -28 -25 -63 -42 -34 -18 -85 -55
-112 -83 l-48 -49 54 14 c137 36 326 42 644 19 l90 -7 -24 26 c-51 56 -256
136 -348 137 l-33 0 0 63 c0 85 25 239 51 315 23 68 42 85 28 25 -11 -49 -11
-114 0 -132 12 -19 37 30 52 99 6 29 15 48 19 43 11 -11 30 -105 31 -151 l1
-37 24 50 c29 61 29 77 4 134 -11 24 -18 46 -16 48 6 7 75 -65 97 -101 l19
-31 0 39 c0 50 -31 100 -82 130 -44 26 -42 31 16 41 26 5 34 10 24 16 -20 13
-102 11 -122 -4 -15 -11 -22 -9 -50 18 -17 16 -39 51 -49 76 -9 25 -36 64 -59
87 -29 30 -36 42 -24 42 26 0 131 -56 171 -91 25 -22 35 -27 35 -16 0 29 -19
66 -56 106 -46 52 -40 55 114 49 93 -4 134 -11 200 -33 195 -66 349 -200 438
-380 39 -80 77 -194 68 -204 -1 -2 -15 6 -31 17 -15 10 -38 23 -51 27 -21 6
-19 2 14 -42 20 -26 51 -77 68 -113 27 -56 31 -76 31 -145 -1 -69 -5 -87 -30
-133 -80 -146 -255 -231 -479 -232 -111 0 -273 24 -379 56 -172 52 -263 66
-397 62 -148 -5 -215 -26 -279 -88 -49 -48 -54 -71 -9 -37 76 57 139 80 229
85 100 5 169 -8 390 -72 236 -68 310 -80 494 -80 173 0 238 11 345 62 156 74
248 269 207 437 -9 36 -25 78 -35 93 -10 15 -24 60 -30 99 -53 324 -288 577
-607 654 -98 23 -272 25 -360 4 -121 -29 -138 -11 -41 41 43 23 54 33 41 38
-29 11 -69 6 -112 -13z m61 -316 c15 -31 27 -58 25 -59 -2 -2 -22 -6 -45 -9
l-41 -7 -2 53 c-1 30 -6 69 -11 88 -14 46 -14 46 18 16 15 -15 40 -52 56 -82z
m-151 36 c10 -91 77 -255 77 -186 0 22 36 36 83 33 l42 -3 -32 -19 c-42 -26
-75 -86 -71 -132 l3 -35 38 53 c22 29 51 62 65 72 25 19 25 19 17 0 -51 -119
-95 -301 -95 -391 0 -27 -4 -34 -17 -31 -34 6 -110 277 -133 476 -12 94 -6
222 9 222 5 0 11 -26 14 -59z"/>
<path d="M1190 940 c-32 -7 -31 -7 19 -9 45 -1 57 -5 79 -30 l27 -28 28 20
c25 19 32 20 84 9 31 -6 58 -10 61 -8 2 2 -21 13 -52 25 -45 17 -60 18 -87 9
-26 -9 -37 -8 -59 6 -30 17 -44 18 -100 6z"/>
<path d="M1517 614 c30 -54 28 -100 -9 -173 -29 -55 -102 -103 -187 -123 -81
-19 -334 -15 -446 6 -125 24 -283 31 -389 17 -81 -11 -283 -67 -274 -76 2 -2
37 5 78 17 97 26 319 36 428 18 42 -7 138 -26 212 -43 179 -40 356 -44 466
-10 140 44 214 122 214 225 0 59 -18 103 -56 141 -52 52 -66 52 -37 1z"/>
</g>
</svg>
