<svg width="188" height="177" viewBox="0 0 188 177" fill="none" xmlns="http://www.w3.org/2000/svg">
<path d="M31.4519 121.864H26.0039V136H22.7159V121.864H17.2679V118.96H31.4519V121.864ZM35.1272 136V118.96H42.6632C43.4472 118.96 44.1672 119.12 44.8233 119.44C45.4953 119.76 46.0713 120.192 46.5512 120.736C47.0473 121.28 47.4233 121.888 47.6792 122.56C47.9513 123.232 48.0873 123.92 48.0873 124.624C48.0873 125.344 47.9593 126.04 47.7033 126.712C47.4633 127.368 47.1112 127.944 46.6473 128.44C46.1833 128.936 45.6393 129.32 45.0153 129.592L48.9032 136H45.2553L41.7513 130.288H38.4392V136H35.1272ZM38.4392 127.384H42.5913C43.0073 127.384 43.3753 127.264 43.6953 127.024C44.0153 126.768 44.2713 126.432 44.4633 126.016C44.6553 125.6 44.7513 125.136 44.7513 124.624C44.7513 124.08 44.6393 123.608 44.4153 123.208C44.1913 122.792 43.9033 122.464 43.5512 122.224C43.2153 121.984 42.8472 121.864 42.4472 121.864H38.4392V127.384ZM57.2802 118.96H60.6402L66.9042 136H63.4962L61.9122 131.752H55.9602L54.4002 136H50.9922L57.2802 118.96ZM61.3122 129.424L58.9602 122.392L56.5122 129.424H61.3122ZM84.2292 136V124.816L79.8612 133.144H78.0132L73.6452 124.816V136H70.3332V118.96H73.8852L78.9252 128.656L84.0132 118.96H87.5412V136H84.2292ZM97.2908 118.96H100.651L106.915 136H103.507L101.923 131.752H95.9708L94.4108 136H91.0028L97.2908 118.96ZM101.323 129.424L98.9708 122.392L96.5228 129.424H101.323ZM113.656 125.056V136H110.344V118.96H112.984L121.792 130.192V118.984H125.104V136H122.344L113.656 125.056ZM130.208 136V118.96H136.4C138.256 118.96 139.808 119.344 141.056 120.112C142.304 120.864 143.24 121.888 143.864 123.184C144.488 124.464 144.8 125.888 144.8 127.456C144.8 129.184 144.456 130.688 143.768 131.968C143.08 133.248 142.104 134.24 140.84 134.944C139.592 135.648 138.112 136 136.4 136H130.208ZM141.464 127.456C141.464 126.352 141.264 125.384 140.864 124.552C140.464 123.704 139.888 123.048 139.136 122.584C138.384 122.104 137.472 121.864 136.4 121.864H133.52V133.096H136.4C137.488 133.096 138.408 132.856 139.16 132.376C139.912 131.88 140.48 131.208 140.864 130.36C141.264 129.496 141.464 128.528 141.464 127.456ZM152.924 118.96H156.284L162.548 136H159.14L157.556 131.752H151.604L150.044 136H146.636L152.924 118.96ZM156.956 129.424L154.604 122.392L152.156 129.424H156.956ZM165.977 136V118.96H169.289V136H165.977ZM168.689 117.52L166.625 116.896L167.921 114.04H170.921L168.689 117.52ZM51.7121 161V146.8H53.5121V161H51.7121ZM70.4874 161V150.16L65.8074 158.5H64.7074L60.0074 150.16V161H58.2074V146.8H60.1074L65.2474 156.02L70.4074 146.8H72.2874V161H70.4874ZM82.7479 161.1C81.7479 161.1 80.8412 160.9 80.0279 160.5C79.2146 160.1 78.5079 159.56 77.9079 158.88C77.3212 158.187 76.8679 157.413 76.5479 156.56C76.2279 155.693 76.0679 154.807 76.0679 153.9C76.0679 152.953 76.2346 152.053 76.5679 151.2C76.9146 150.333 77.3879 149.567 77.9879 148.9C78.6012 148.22 79.3146 147.687 80.1279 147.3C80.9412 146.9 81.8279 146.7 82.7879 146.7C83.7879 146.7 84.6946 146.907 85.5079 147.32C86.3212 147.733 87.0212 148.287 87.6079 148.98C88.1946 149.673 88.6479 150.447 88.9679 151.3C89.2879 152.153 89.4479 153.027 89.4479 153.92C89.4479 154.867 89.2812 155.773 88.9479 156.64C88.6146 157.493 88.1412 158.26 87.5279 158.94C86.9279 159.607 86.2212 160.133 85.4079 160.52C84.5946 160.907 83.7079 161.1 82.7479 161.1ZM77.8879 153.9C77.8879 154.62 78.0012 155.32 78.2279 156C78.4679 156.667 78.8012 157.26 79.2279 157.78C79.6546 158.3 80.1679 158.713 80.7679 159.02C81.3679 159.327 82.0346 159.48 82.7679 159.48C83.5279 159.48 84.2079 159.32 84.8079 159C85.4079 158.68 85.9146 158.253 86.3279 157.72C86.7546 157.187 87.0746 156.587 87.2879 155.92C87.5146 155.253 87.6279 154.58 87.6279 153.9C87.6279 153.18 87.5079 152.487 87.2679 151.82C87.0412 151.153 86.7079 150.56 86.2679 150.04C85.8412 149.507 85.3279 149.093 84.7279 148.8C84.1412 148.493 83.4879 148.34 82.7679 148.34C82.0079 148.34 81.3279 148.5 80.7279 148.82C80.1279 149.127 79.6146 149.547 79.1879 150.08C78.7746 150.613 78.4546 151.213 78.2279 151.88C78.0012 152.533 77.8879 153.207 77.8879 153.9ZM83.4079 145.1L82.2479 144.7L83.4079 142.68H85.1679L83.4079 145.1ZM93.102 146.8L97.802 158.74L102.482 146.8H104.382L98.622 161H96.982L91.202 146.8H93.102ZM117.236 159.4V161H107.596V146.8H117.056V148.4H109.396V153H116.056V154.5H109.396V159.4H117.236ZM121.005 161V146.8H122.805V161H121.005ZM135.84 149.78C135.68 149.593 135.467 149.413 135.2 149.24C134.934 149.067 134.634 148.913 134.3 148.78C133.967 148.633 133.6 148.52 133.2 148.44C132.814 148.347 132.407 148.3 131.98 148.3C130.887 148.3 130.08 148.507 129.56 148.92C129.04 149.333 128.78 149.9 128.78 150.62C128.78 151.127 128.914 151.527 129.18 151.82C129.447 152.113 129.854 152.353 130.4 152.54C130.96 152.727 131.667 152.92 132.52 153.12C133.507 153.333 134.36 153.593 135.08 153.9C135.8 154.207 136.354 154.62 136.74 155.14C137.127 155.647 137.32 156.327 137.32 157.18C137.32 157.86 137.187 158.453 136.92 158.96C136.667 159.453 136.307 159.867 135.84 160.2C135.374 160.52 134.827 160.76 134.2 160.92C133.574 161.067 132.894 161.14 132.16 161.14C131.44 161.14 130.734 161.067 130.04 160.92C129.36 160.76 128.714 160.533 128.1 160.24C127.487 159.947 126.914 159.58 126.38 159.14L127.24 157.62C127.454 157.847 127.727 158.073 128.06 158.3C128.407 158.513 128.794 158.713 129.22 158.9C129.66 159.087 130.134 159.24 130.64 159.36C131.147 159.467 131.667 159.52 132.2 159.52C133.214 159.52 134 159.34 134.56 158.98C135.12 158.607 135.4 158.067 135.4 157.36C135.4 156.827 135.24 156.4 134.92 156.08C134.614 155.76 134.154 155.493 133.54 155.28C132.927 155.067 132.18 154.853 131.3 154.64C130.34 154.4 129.534 154.14 128.88 153.86C128.227 153.567 127.734 153.187 127.4 152.72C127.08 152.253 126.92 151.647 126.92 150.9C126.92 149.993 127.14 149.227 127.58 148.6C128.02 147.973 128.627 147.5 129.4 147.18C130.174 146.86 131.047 146.7 132.02 146.7C132.66 146.7 133.254 146.767 133.8 146.9C134.36 147.033 134.88 147.22 135.36 147.46C135.84 147.7 136.28 147.987 136.68 148.32L135.84 149.78Z" fill="#1E1D40"/>
<path d="M70.0763 3.5973C68.534 4.40486 66.501 6.01997 65.5897 7.26801L63.9773 9.54386L62.5051 8.07557C60.2618 5.87314 56.7567 4.99217 53.6021 5.87314C50.0268 6.90094 49.7464 7.78191 52.7608 8.44264C55.8454 9.02996 58.6495 10.278 58.6495 11.159C58.6495 11.4526 56.967 11.7463 55.0041 11.7463C49.9567 11.7463 46.1711 14.0221 44.068 18.3536C43.2268 20.1155 42.5258 22.2445 42.5258 23.0521C42.5258 24.3735 42.666 24.3735 44.4887 22.6116C46.3814 20.6294 53.3216 16.8853 55.0041 16.8853C55.4247 16.8853 55.8454 17.1789 55.8454 17.6194C55.8454 17.9865 55.5649 18.3536 55.2845 18.3536C54.233 18.3536 43.8577 31.7884 41.1237 36.7072C33.6928 49.8483 31.5897 66.8804 35.5155 82.1506C37.4082 89.492 38.2495 90.8135 40.2124 89.5654C41.6144 88.6111 41.6144 88.6111 39.7917 83.0316C38.1794 78.0394 38.0392 76.2775 37.9691 66.4399C37.9691 57.7771 38.2495 54.4734 39.2309 51.0229C40.8433 45.7371 44.6289 37.5881 47.2227 33.9908L49.1155 31.4213L50.0268 34.725C50.5175 36.4869 51.3588 38.3957 51.9196 38.8362C52.6907 39.4969 52.9711 39.0564 53.3216 36.1198C53.7423 32.8162 57.8082 22.6116 59.1402 21.804C59.4206 21.5838 59.5608 26.5026 59.4907 32.6694C59.2103 45.5169 60.4722 56.9695 63.2062 65.9995C64.1876 69.0829 64.9588 71.8726 64.9588 72.3131C64.9588 72.6802 62.9959 74.1484 60.5423 75.3965C58.1588 76.7179 54.5835 79.4343 52.6907 81.4899L49.3258 85.0872L53.1113 84.0594C62.7155 81.4165 75.9649 80.976 98.2577 82.6645L104.567 83.1784L102.885 81.2696C99.3093 77.1584 84.9381 71.2853 78.4886 71.2119H76.1752V66.5868C76.1752 60.3466 77.9278 49.0408 79.7505 43.4613C81.3629 38.4691 82.6948 37.2211 81.7134 41.6259C80.9423 45.2232 80.9423 49.9951 81.7134 51.3166C82.5546 52.7115 84.3072 49.1142 85.3587 44.0486C85.7794 41.9196 86.4103 40.5247 86.6907 40.8918C87.4618 41.6993 88.7938 48.6003 88.8639 51.9773L88.934 54.6937L90.6165 51.0229C92.6495 46.5447 92.6495 45.37 90.8969 41.1854C90.1258 39.4235 89.635 37.8084 89.7752 37.6615C90.1959 37.1476 95.033 42.4335 96.5752 45.0764L97.9072 47.3522V44.4891C97.9072 40.8184 95.734 37.1476 92.1587 34.9452C89.0742 33.0364 89.2144 32.6694 93.2804 31.9352C95.1031 31.5681 95.6639 31.2011 94.9629 30.7606C93.5608 29.8062 87.8124 29.953 86.4103 31.0542C85.3587 31.8618 84.868 31.715 82.9051 29.7328C81.7134 28.5582 80.1711 25.9887 79.4701 24.1533C78.8392 22.3179 76.9464 19.4548 75.334 17.7663C73.301 15.5638 72.8103 14.6829 73.6515 14.6829C75.4742 14.6829 82.835 18.7941 85.6392 21.3636C87.3917 22.9787 88.0928 23.3457 88.0928 22.5382C88.0928 20.4092 86.7608 17.6928 84.167 14.7563C80.9423 10.9387 81.3629 10.7185 92.1587 11.159C98.6783 11.4526 101.553 11.9665 106.179 13.5816C119.849 18.427 130.645 28.2645 136.885 41.4791C139.619 47.3522 142.282 55.7215 141.652 56.4556C141.581 56.6024 140.6 56.0151 139.478 55.2076C138.427 54.4734 136.814 53.519 135.903 53.2254C134.431 52.7849 134.571 53.0785 136.885 56.3088C138.287 58.2175 140.46 61.9617 141.652 64.6046C143.544 68.7158 143.825 70.1841 143.825 75.2497C143.755 80.3152 143.474 81.6367 141.722 85.0138C136.113 95.7322 123.845 101.972 108.142 102.046C100.361 102.046 89.0041 100.284 81.5732 97.9347C69.5155 94.1171 63.1361 93.0893 53.7423 93.383C43.367 93.7501 38.6701 95.2918 34.1835 99.8435C30.7485 103.367 30.3979 105.056 33.5526 102.56C38.8804 98.3752 43.2969 96.6866 49.6062 96.3196C56.6165 95.9525 61.4536 96.9069 76.9464 101.605C93.4907 106.598 98.6783 107.479 111.577 107.479C123.705 107.479 128.262 106.671 135.763 102.927C146.699 97.4942 153.148 83.1784 150.274 70.8448C149.643 68.2019 148.522 65.1185 147.821 64.0173C147.12 62.9161 146.138 59.6124 145.717 56.7493C142.002 32.963 125.528 14.3892 103.165 8.7363C96.2948 7.04777 84.0969 6.90094 77.9278 8.44264C69.4454 10.5717 68.2536 9.2502 75.0536 5.43266C78.068 3.74413 78.8392 3.00998 77.9278 2.64291C75.8948 1.83536 73.0907 2.20243 70.0763 3.5973ZM74.3526 26.7962C75.4041 29.0721 76.2453 31.0542 76.1051 31.1277C75.9649 31.2745 74.5629 31.5681 72.9505 31.7884L70.0763 32.3023L69.9361 28.4113C69.866 26.2089 69.5155 23.3457 69.1649 21.9509C68.1835 18.5738 68.1835 18.5738 70.4268 20.7762C71.4783 21.8775 73.2309 24.5938 74.3526 26.7962ZM63.767 24.1533C64.468 30.834 69.1649 42.874 69.1649 37.8084C69.1649 36.1932 71.6886 35.1654 74.9835 35.3857L77.9278 35.6059L75.6845 37.0008C72.7402 38.9096 70.4268 43.3144 70.7072 46.6915L70.9175 49.261L73.5814 45.37C75.1237 43.241 77.1567 40.8184 78.1381 40.0842C79.8907 38.6893 79.8907 38.6893 79.3299 40.0842C75.7546 48.8205 72.6701 62.1819 72.6701 68.7892C72.6701 70.7714 72.3897 71.2853 71.4783 71.065C69.0948 70.6246 63.767 50.7293 62.1546 36.1198C61.3134 29.2189 61.734 19.8219 62.7856 19.8219C63.1361 19.8219 63.5567 21.7306 63.767 24.1533Z" fill="url(#paint0_linear_5_102)"/>
<path d="M108.423 42.5803C106.179 43.0942 106.249 43.0942 109.755 43.241C112.909 43.3144 113.751 43.6081 115.293 45.4434L117.186 47.499L119.148 46.0308C120.901 44.6359 121.392 44.5625 125.037 45.37C127.21 45.8105 129.103 46.1042 129.313 45.9573C129.454 45.8105 127.841 45.003 125.668 44.122C122.513 42.8739 121.462 42.8005 119.569 43.4612C117.746 44.122 116.975 44.0486 115.433 43.0208C113.33 41.7727 112.348 41.6993 108.423 42.5803Z" fill="url(#paint1_linear_5_102)"/>
<path d="M131.346 66.5134C133.449 70.4777 133.309 73.8548 130.715 79.214C128.682 83.2518 123.565 86.7757 117.606 88.244C111.928 89.6389 94.1917 89.3452 86.3402 87.8035C77.5773 86.0416 66.501 85.5277 59.0701 86.5555C53.3918 87.363 39.2309 91.4742 39.8619 92.135C40.0021 92.2818 42.4557 91.7679 45.3299 90.8869C52.1299 88.9781 67.6928 88.244 75.334 89.5655C78.2783 90.0794 85.0082 91.4742 90.1959 92.7223C102.744 95.6589 115.153 95.9525 122.864 93.4564C132.678 90.2262 137.866 84.4999 137.866 76.9382C137.866 72.6068 136.604 69.3765 133.94 66.5868C130.295 62.7692 129.313 62.7692 131.346 66.5134Z" fill="url(#paint2_linear_5_102)"/>
<defs>
<linearGradient id="paint0_linear_5_102" x1="95.5" y1="101.5" x2="90.5" y2="7.5" gradientUnits="userSpaceOnUse">
<stop stop-color="#00D1FF"/>
<stop offset="1" stop-color="#1E1D40"/>
</linearGradient>
<linearGradient id="paint1_linear_5_102" x1="118.923" y1="47.1862" x2="118.85" y2="42.2539" gradientUnits="userSpaceOnUse">
<stop stop-color="#00D1FF"/>
<stop offset="1" stop-color="#1E1D40"/>
</linearGradient>
<linearGradient id="paint2_linear_5_102" x1="92.403" y1="93.3596" x2="91.8579" y2="65.222" gradientUnits="userSpaceOnUse">
<stop stop-color="#00D1FF"/>
<stop offset="1" stop-color="#1E1D40"/>
</linearGradient>
</defs>
</svg>
